<?xml version="1.0" encoding="utf-8"?>
<!-- Generator: Adobe Illustrator 25.0.1, SVG Export Plug-In . SVG Version: 6.00 Build 0)  -->
<svg version="1.0" id="Layer_1" xmlns="http://www.w3.org/2000/svg" xmlns:xlink="http://www.w3.org/1999/xlink" x="0px" y="0px"
	 viewBox="54 189.3 293.8 293.8" style="enable-background:new 0 0 293.8 293.8;" xml:space="preserve">
<style type="text/css">
	.st0{fill:#B4E2FD;}
	.st1{fill:none;}
</style>
<g id="Symbols">
	<g id="HEADER_MVP_01">
		<g id="logo_totvs_devs_neg">
			<g id="Group-16">
				<path id="Fill-12" class="st0" d="M231.8,280.8c-4.1-3.5-37.5-12.9-65.3-19.5c0,21.5,1.1,44.8,3.9,48.8
					c4.1,3.5,37.6,12.9,65.4,19.5C235.8,308.2,234.6,284.8,231.8,280.8"/>
				<path id="Fill-14" class="st0" d="M273.6,336.2c-12.8-0.7-25.5-2.9-37.8-6.5c0,18.4-1.5,35.4-4,37.8
					c-6.8,2.4-96.3-20.2-103.2-26.1c-5-7.7-5-81.7,0-86.6c12.8,0.7,25.5,2.9,37.8,6.5c0-18.5,1.5-35.5,4-37.7
					c7-2.4,96.3,20.2,103.2,26.1C278.9,257.3,278.9,331.3,273.6,336.2 M201.5,189.3c-59.4,0-107.6,48.2-107.6,107.6
					s48.2,107.6,107.6,107.6c59.4,0,107.6-48.2,107.6-107.6C309.1,237.5,261,189.3,201.5,189.3C201.5,189.3,201.5,189.3,201.5,189.3
					"/>
			</g>
		</g>
	</g>
</g>
</svg>
